# xmcd
#
# Track frame offsets: 
#        150
#        24336
#        39543
#        51115
#        69147
#        83114
#        92991
#        107852
#        123508
#        145089
#        165855
#        180024
#        197923
#
# Disc length: 2942 seconds
#
# Revision: 0
# Processed by: cddbd v1.5.2PL0 Copyright (c) Steve Scherf et al.
# Submitted via: ExactAudioCopyFreeDBPlugin 1.0
#
DISCID=9e0b7c0d
DTITLE=Jordan Rakei - Cloak
DYEAR=2016
DGENRE=Soul
TTITLE0=Midnight Mischief
TTITLE1=Snitch (feat. Remi)
TTITLE2=Blame It On The Youth
TTITLE3=The Light
TTITLE4=Talk To Me
TTITLE5=Still (Interlude)
TTITLE6=Rooftop
TTITLE7=Lost Myself
TTITLE8=Toko (feat. Richard Spaven)
TTITLE9=Cupid's Cheese (feat. Ngaiire)
TTITLE10=Theta State
TTITLE11=Sworn Enemy
TTITLE12=Tawo
EXTD=
EXTT0=
EXTT1=
EXTT2=
EXTT3=
EXTT4=
EXTT5=
EXTT6=
EXTT7=
EXTT8=
EXTT9=
EXTT10=
EXTT11=
EXTT12=
PLAYORDER=
